<svg xmlns="http://www.w3.org/2000/svg" viewBox="0 0 70 70" id="1910065811" class="svg u_1910065811" data-icon-name="wp-location_pin_thin" alt="location icon" role="presentation"><title>location icon</title> <g id="1099003021"> <path d="M35,10c-9.4,0-17,7.6-17,17c0,4.1,1.5,8,4.1,11.1l0.1,0.1c4.6,5.3,7.9,10.8,9.9,16.4l1,3.7l0,0.1c0.3,1.1,1,1.6,1.9,1.6
s1.6-0.5,1.9-1.6l1-3.8c1.9-5.6,5.3-11.2,9.9-16.4l0.1-0.1C50.5,35,52,31.1,52,27C52,17.6,44.4,10,35,10z M46.4,36.8L46.4,36.8
C41.5,42.3,38.1,48.1,36,54l0,0.1c0,0-1,3.7-1,3.7c0,0-0.1-0.2-0.1-0.2L34,54l0-0.1c-2-5.8-5.5-11.5-10.2-17l-0.1-0.1
C21.3,34.1,20,30.6,20,27c0-8.3,6.7-15,15-15s15,6.7,15,15C50,30.6,48.7,34.1,46.4,36.8z" id="1253672367"></path> 
<path d="M35,34c-3.9,0-7-3.1-7-7s3.1-7,7-7c3.9,0,7,3.1,7,7S38.9,34,35,34z M35,22c-2.8,0-5,2.2-5,5s2.2,5,5,5c2.8,0,5-2.2,5-5
S37.8,22,35,22z" id="1959022252"></path> 
</g> 
</svg>