<svg xmlns="http://www.w3.org/2000/svg" viewBox="0 0 100 100" id="1183379959" class="svg u_1183379959" data-icon-name="li_tools" alt="tools icon" role="presentation"><title>tools icon</title> <path d="M84.9,63.5c-2.3-2.3-5.3-3.6-8.6-3.6c-2.9,0-5.6,1-7.7,2.9L55.8,50l21.3-21.3l0.8,0.8l7.8-7.8l-3.1-3.1l-7.8,7.8l0.8,0.8
	L54.2,48.4L41.4,35.6c1.8-2.2,2.9-4.9,2.9-7.7c0-3.2-1.3-6.3-3.6-8.6c-3-3-7.5-4.2-11.7-3.1l-1.9,0.5l7.3,7.3l-6.3,6.3l-7.3-7.3
	l-0.5,1.9c-1.1,4.2,0.1,8.7,3.1,11.7c2.3,2.3,5.3,3.6,8.6,3.6l0,0c2.9,0,5.6-1,7.7-2.9L52.6,50L38.3,64.3l-3.9-3.9L21.9,72.9
	c-1.3,1.3-1.9,2.9-1.9,4.7c0,1.8,0.7,3.4,1.9,4.7c1.3,1.3,2.9,1.9,4.7,1.9c1.8,0,3.4-0.7,4.7-1.9l12.5-12.5l-3.9-3.9l14.3-14.3
	L67,64.4c-1.8,2.2-2.9,4.9-2.9,7.7c0,3.2,1.3,6.3,3.6,8.6c2.3,2.3,5.3,3.5,8.5,3.5c1.1,0,2.1-0.1,3.2-0.4l1.9-0.5L74,76l6.2-6.3
	l7.3,7.3l0.5-1.9C89.1,71,87.9,66.5,84.9,63.5z M32.1,37.8L32.1,37.8c-2.7,0-5.2-1-7-2.9c-2-2-3-4.7-2.9-7.6l6,6l9.4-9.4l-6-6
	c2.8-0.2,5.6,0.9,7.5,2.9c1.9,1.9,2.9,4.4,2.9,7c0,2.7-1,5.2-2.9,7C37.2,36.8,34.7,37.8,32.1,37.8z M29.7,80.7
	c-1.7,1.7-4.6,1.7-6.2,0c-0.8-0.8-1.3-1.9-1.3-3.1c0-1.2,0.5-2.3,1.3-3.1l10.9-10.9l6.3,6.3L29.7,80.7z M80.2,66.6L70.8,76l6,6
	c-0.2,0-0.4,0-0.6,0c-2.6,0-5.1-1-7-2.9c-1.9-1.9-2.9-4.4-2.9-7c0-2.7,1-5.2,2.9-7c1.9-1.9,4.4-2.9,7-2.9c2.7,0,5.2,1,7,2.9
	c2,2,3,4.7,2.9,7.6L80.2,66.6z"></path> 
</svg>