<svg xmlns="http://www.w3.org/2000/svg" viewBox="0 0 70 70" id="1497528834" class="svg u_1497528834" data-icon-name="wp-phone_thin" alt="phone icon" role="presentation"><title>phone icon</title> <g id="1382587610"> <path d="M21,14h2.4l0,0c1,0,1.9,0.6,2.2,1.6l3,9.5c0.3,0.8,0,1.7-0.6,2.3l-3.5,3.5c-0.1,0.1-0.1,0.2-0.1,0.4c0.8,1.5,2.8,4.4,6.3,8
		c3.5,3.5,6.5,5.5,8,6.3c0.1,0.1,0.3,0,0.4-0.1l3.5-3.5c0.6-0.6,1.5-0.8,2.3-0.6l9.5,3c1,0.3,1.6,1.2,1.6,2.2V49c0,2-6,7-10,7
		c-2.3,0-10.8-0.8-21-11l0,0C14.8,34.8,14,26.3,14,24C14,20.1,18.9,14,21,14z M26.4,43.5L26.4,43.5C36.1,53.2,43.9,54,46,54
		c3,0,7.6-3.9,8-5v-2.3c0-0.1-0.1-0.3-0.2-0.3l-9.5-3c-0.1,0-0.2,0-0.3,0.1L40.5,47c-0.7,0.7-1.9,0.9-2.8,0.4
		c-1.5-0.9-4.7-2.9-8.4-6.6c-3.7-3.7-5.7-6.9-6.6-8.4c-0.5-0.9-0.4-2,0.4-2.8l3.5-3.5c0.1-0.1,0.1-0.2,0.1-0.3l-3-9.5
		c0-0.1-0.2-0.2-0.3-0.2l0,0L21,16c-1.1,0.4-5,4.9-5,8C16,26.1,16.8,33.9,26.4,43.5z" id="1738304594"></path> 
</g> 
</svg>