<?xml version="1.0" encoding="UTF-8" standalone="no"?>
<!-- Created with Inkscape (http://www.inkscape.org/) -->

<svg
   id="svg2"
   viewBox="0 0 244.03652 80.344068"
   version="1.0"
   width="64.568001mm"
   height="21.257702mm"
   xmlns="http://www.w3.org/2000/svg"
   xmlns:svg="http://www.w3.org/2000/svg"
   xmlns:rdf="http://www.w3.org/1999/02/22-rdf-syntax-ns#"
   xmlns:cc="http://creativecommons.org/ns#"
   xmlns:dc="http://purl.org/dc/elements/1.1/">
  <defs
     id="defs10" />
  <path
     id="path4132"
     style="fill:#d38d5f;stroke-width:1.34625"
     d="M 70.386962,29.792429 C 70.252346,18.793598 66.671318,11.362318 62.982598,8.6698259 51.337551,24.797854 50.570191,32.000273 56.089806,34.086956 c 2.746347,0.753897 -1.386634,-12.318154 5.627316,-12.331618 4.71187,-0.107693 5.304219,7.969779 4.334922,13.974038 C 63.844196,49.54186 53.39731,68.591248 52.885735,68.618172 52.252998,68.658556 51.404863,65.952606 50.947137,64.754446 46.423746,52.557455 40.513717,46.014697 40.311778,34.921629 40.123302,24.340132 43.677399,12.856651 52.885735,0 h -35.3794 c 9.20834,12.856651 12.722044,24.340132 12.53357,34.921629 -0.188462,11.093068 -6.111966,17.635826 -10.635361,29.832817 -0.444261,1.19816 -1.26547,3.904113 -1.898209,3.863726 C 16.99476,68.591248 6.5074878,49.54186 4.2996418,35.729376 3.3438055,29.725117 3.9226923,21.647639 8.6345607,21.755338 15.648512,21.7688 11.528994,34.840853 14.27534,34.086956 19.781495,32.000273 19.014131,24.797854 7.369087,8.6698259 -0.47953881,14.404834 -7.7492788,41.774023 17.506335,79.186204 h 35.3794 C 66.307831,59.302146 70.548511,42.258671 70.386962,29.792429 Z" />
  <metadata
     id="metadata5">
    <rdf:RDF>
      <cc:Work>
        <dc:format>image/svg+xml</dc:format>
        <dc:type
           rdf:resource="http://purl.org/dc/dcmitype/StillImage" />
        <cc:license
           rdf:resource="http://creativecommons.org/publicdomain/zero/1.0/" />
        <dc:publisher>
          <cc:Agent
             rdf:about="http://openclipart.org/">
            <dc:title>Openclipart</dc:title>
          </cc:Agent>
        </dc:publisher>
        <dc:date>2010-04-14T22:53:13</dc:date>
        <dc:description>Border decoration often found on antic pottery</dc:description>
        <dc:source>https://openclipart.org/detail/47131/meander-running-flame-by-hextrust</dc:source>
        <dc:creator>
          <cc:Agent>
            <dc:title>hextrust</dc:title>
          </cc:Agent>
        </dc:creator>
        <dc:subject>
          <rdf:Bag>
            <rdf:li>Decoration</rdf:li>
            <rdf:li>border</rdf:li>
            <rdf:li>greek</rdf:li>
            <rdf:li>mäander</rdf:li>
            <rdf:li>pattern</rdf:li>
            <rdf:li>urn</rdf:li>
          </rdf:Bag>
        </dc:subject>
      </cc:Work>
      <cc:License
         rdf:about="http://creativecommons.org/publicdomain/zero/1.0/">
        <cc:permits
           rdf:resource="http://creativecommons.org/ns#Reproduction" />
        <cc:permits
           rdf:resource="http://creativecommons.org/ns#Distribution" />
        <cc:permits
           rdf:resource="http://creativecommons.org/ns#DerivativeWorks" />
      </cc:License>
    </rdf:RDF>
  </metadata>
  <g
     aria-label="LUXURY APARTMENTS"
     id="text396"
     style="font-size:11.7557px;fill:#ffffff;stroke-width:0.113638;stroke-linecap:square;stroke-linejoin:round;paint-order:fill markers stroke"
     transform="matrix(1.0000014,0,0,1,-18.50211,0)">
    <path
       d="m 94.974166,68.695563 h 1.545991 v 10.125472 h 5.564033 v 1.301081 h -7.110024 z"
       style="font-size:15.6742px;-inkscape-font-specification:'sans-serif, Normal';fill:#ffffff"
       id="path1345" />
    <path
       d="m 102.75004,68.695563 h 1.55364 v 6.94165 q 0,1.83682 0.66585,2.648083 0.66585,0.803609 2.15826,0.803609 1.48477,0 2.15061,-0.803609 0.66585,-0.811263 0.66585,-2.648083 v -6.94165 h 1.55365 v 7.132986 q 0,2.234798 -1.10975,3.375157 -1.10209,1.140359 -3.26036,1.140359 -2.16591,0 -3.27566,-1.140359 -1.10209,-1.140359 -1.10209,-3.375157 z"
       style="font-size:15.6742px;-inkscape-font-specification:'sans-serif, Normal';fill:#ffffff"
       id="path1347" />
    <path
       d="m 113.84749,68.695563 h 1.6608 l 2.83941,4.247647 2.85473,-4.247647 h 1.66079 l -3.67364,5.487501 3.91855,5.939052 h -1.66079 l -3.21444,-4.85992 -3.23739,4.85992 h -1.66845 l 4.07927,-6.099774 z"
       style="font-size:15.6742px;-inkscape-font-specification:'sans-serif, Normal';fill:#ffffff"
       id="path1349" />
    <path
       d="m 124.96026,68.695563 h 1.55364 v 6.94165 q 0,1.83682 0.66585,2.648083 0.66585,0.803609 2.15826,0.803609 1.48477,0 2.15061,-0.803609 0.66585,-0.811263 0.66585,-2.648083 v -6.94165 h 1.55365 v 7.132986 q 0,2.234798 -1.10975,3.375157 -1.10209,1.140359 -3.26036,1.140359 -2.16591,0 -3.27566,-1.140359 -1.10209,-1.140359 -1.10209,-3.375157 z"
       style="font-size:15.6742px;-inkscape-font-specification:'sans-serif, Normal';fill:#ffffff"
       id="path1351" />
    <path
       d="m 142.02738,74.764723 q 0.49747,0.168376 0.96433,0.719422 0.47451,0.551046 0.94902,1.515377 l 1.56896,3.122594 h -1.6608 l -1.4618,-2.931259 q -0.56635,-1.148013 -1.10209,-1.52303 -0.52809,-0.375018 -1.4465,-0.375018 h -1.68375 v 4.829307 h -1.54599 V 68.695563 h 3.48996 q 1.95927,0 2.9236,0.818916 0.96434,0.818915 0.96434,2.472054 0,1.079132 -0.50513,1.7909 -0.49747,0.711767 -1.45415,0.98729 z m -3.87263,-4.798693 v 4.056312 h 1.94397 q 1.1174,0 1.68375,-0.512779 0.57401,-0.520432 0.57401,-1.52303 0,-1.002598 -0.57401,-1.507724 -0.56635,-0.512779 -1.68375,-0.512779 z"
       style="font-size:15.6742px;-inkscape-font-specification:'sans-serif, Normal';fill:#ffffff"
       id="path1353" />
    <path
       d="m 144.92802,68.695563 h 1.6608 l 3.16851,4.699199 3.14556,-4.699199 h 1.66079 l -4.04101,5.984973 v 5.44158 h -1.55364 v -5.44158 z"
       style="font-size:15.6742px;-inkscape-font-specification:'sans-serif, Normal';fill:#ffffff"
       id="path1355" />
    <path
       d="m 164.87283,70.218593 -2.09703,5.68649 h 4.20172 z m -0.87249,-1.52303 h 1.75264 l 4.35479,11.426553 h -1.60722 l -1.04086,-2.931259 h -5.15075 l -1.04087,2.931259 h -1.63017 z"
       style="font-size:15.6742px;-inkscape-font-specification:'sans-serif, Normal';fill:#ffffff"
       id="path1357" />
    <path
       d="m 173.3222,69.96603 v 4.293568 h 1.94397 q 1.07913,0 1.66845,-0.5587 0.58931,-0.558699 0.58931,-1.591911 0,-1.025558 -0.58931,-1.584257 -0.58932,-0.5587 -1.66845,-0.5587 z m -1.54599,-1.270467 h 3.48996 q 1.92101,0 2.90065,0.87249 0.98729,0.864836 0.98729,2.540934 0,1.691406 -0.98729,2.556242 -0.97964,0.864836 -2.90065,0.864836 h -1.94397 v 4.592051 h -1.54599 z"
       style="font-size:15.6742px;-inkscape-font-specification:'sans-serif, Normal';fill:#ffffff"
       id="path1359" />
    <path
       d="m 184.04464,70.218593 -2.09704,5.68649 h 4.20173 z m -0.87249,-1.52303 h 1.75263 l 4.3548,11.426553 h -1.60722 l -1.04086,-2.931259 h -5.15075 l -1.04087,2.931259 h -1.63018 z"
       style="font-size:15.6742px;-inkscape-font-specification:'sans-serif, Normal';fill:#ffffff"
       id="path1361" />
    <path
       d="m 196.36665,74.764723 q 0.49747,0.168376 0.96433,0.719422 0.47451,0.551046 0.94902,1.515377 l 1.56895,3.122594 h -1.66079 l -1.4618,-2.931259 q -0.56635,-1.148013 -1.10209,-1.52303 -0.52809,-0.375018 -1.4465,-0.375018 h -1.68375 v 4.829307 h -1.54599 V 68.695563 h 3.48996 q 1.95927,0 2.9236,0.818916 0.96433,0.818915 0.96433,2.472054 0,1.079132 -0.50512,1.7909 -0.49747,0.711767 -1.45415,0.98729 z m -3.87263,-4.798693 v 4.056312 h 1.94397 q 1.1174,0 1.68375,-0.512779 0.574,-0.520432 0.574,-1.52303 0,-1.002598 -0.574,-1.507724 -0.56635,-0.512779 -1.68375,-0.512779 z"
       style="font-size:15.6742px;-inkscape-font-specification:'sans-serif, Normal';fill:#ffffff"
       id="path1363" />
    <path
       d="m 199.11423,68.695563 h 9.66627 v 1.301081 h -4.05632 v 10.125472 h -1.55364 V 69.996644 h -4.05631 z"
       style="font-size:15.6742px;-inkscape-font-specification:'sans-serif, Normal';fill:#ffffff"
       id="path1365" />
    <path
       d="m 210.27291,68.695563 h 2.30368 l 2.91595,7.775873 2.93126,-7.775873 h 2.30368 v 11.426553 h -1.50772 V 70.088485 l -2.94657,7.8371 h -1.55364 l -2.94657,-7.8371 v 10.033631 h -1.50007 z"
       style="font-size:15.6742px;-inkscape-font-specification:'sans-serif, Normal';fill:#ffffff"
       id="path1367" />
    <path
       d="m 223.79649,68.695563 h 7.22483 v 1.301081 h -5.67884 v 3.382811 h 5.44158 v 1.301081 h -5.44158 v 4.140499 h 5.8166 v 1.301081 h -7.36259 z"
       style="font-size:15.6742px;-inkscape-font-specification:'sans-serif, Normal';fill:#ffffff"
       id="path1369" />
    <path
       d="m 233.70003,68.695563 h 2.08173 l 5.06656,9.559119 v -9.559119 h 1.50007 v 11.426553 h -2.08173 l -5.06656,-9.559119 v 9.559119 h -1.50007 z"
       style="font-size:15.6742px;-inkscape-font-specification:'sans-serif, Normal';fill:#ffffff"
       id="path1371" />
    <path
       d="m 243.84081,68.695563 h 9.66626 v 1.301081 h -4.05631 v 10.125472 h -1.55364 V 69.996644 h -4.05631 z"
       style="font-size:15.6742px;-inkscape-font-specification:'sans-serif, Normal';fill:#ffffff"
       id="path1373" />
    <path
       d="m 261.84929,69.070581 v 1.507723 q -0.88014,-0.420938 -1.66079,-0.62758 -0.78065,-0.206643 -1.50773,-0.206643 -1.26281,0 -1.95162,0.489819 -0.68115,0.489819 -0.68115,1.392922 0,0.757688 0.45155,1.148013 0.45921,0.382671 1.72967,0.619927 l 0.93372,0.191335 q 1.72967,0.329097 2.54859,1.16332 0.82657,0.826569 0.82657,2.219491 0,1.660792 -1.1174,2.517974 -1.10975,0.857183 -3.26036,0.857183 -0.81126,0 -1.72967,-0.183682 -0.91076,-0.183682 -1.89039,-0.543392 V 78.02508 q 0.94137,0.528085 1.84447,0.795955 0.9031,0.26787 1.77559,0.26787 1.32404,0 2.04346,-0.520433 0.71943,-0.520432 0.71943,-1.484763 0,-0.841876 -0.52044,-1.316388 -0.51278,-0.474512 -1.6914,-0.711768 l -0.94137,-0.183682 q -1.72967,-0.344403 -2.50267,-1.079132 -0.773,-0.734728 -0.773,-2.043462 0,-1.515377 1.06383,-2.387867 1.07148,-0.872489 2.94657,-0.872489 0.8036,0 1.63783,0.145415 0.83422,0.145415 1.70671,0.436245 z"
       style="font-size:15.6742px;-inkscape-font-specification:'sans-serif, Normal';fill:#ffffff"
       id="path1375" />
  </g>
  <path
     style="fill:#ff00ff;stroke:#d38d5f;stroke-width:0.716;stroke-linecap:square;stroke-linejoin:round;stroke-dasharray:none;stroke-opacity:1;paint-order:fill markers stroke"
     d="M 76.830189,60.225238 H 243.67852"
     id="path587" />
  <g
     aria-label="Hestia"
     id="text396-8"
     style="font-weight:bold;font-size:58.6266px;font-family:Cambria;-inkscape-font-specification:'Cambria, Bold';fill:#ffffff;stroke-width:0.141681;stroke-linecap:square;stroke-linejoin:round;paint-order:fill markers stroke"
     transform="matrix(1.0000014,0,0,1,-18.50211,0)">
    <path
       d="m 129.08254,48.038951 q 0,2.204222 0.17176,3.034384 0.20038,0.801536 0.7729,1.345435 0.57253,0.543899 2.08972,0.91604 v 1.889334 H 117.17401 V 53.33481 q 1.66032,-0.429394 2.14697,-0.858788 0.48665,-0.429394 0.68703,-1.202303 0.20038,-0.801536 0.20038,-3.234768 V 36.559817 h -12.93907 v 11.479134 q 0,1.001919 0.0573,1.860707 0.0573,0.858788 0.22901,1.402687 0.17176,0.543899 0.48665,0.916041 0.34352,0.372141 0.91604,0.658404 0.57253,0.257636 1.40269,0.45802 v 1.889334 H 95.332167 V 53.33481 q 1.059172,-0.286262 1.660324,-0.601151 0.629778,-0.343516 0.91604,-0.916041 0.314889,-0.601152 0.400768,-1.488566 0.08588,-0.916041 0.08588,-2.290101 V 23.363107 q 0,-1.345435 -0.08588,-2.261475 -0.05725,-0.916041 -0.372141,-1.488566 -0.286263,-0.572526 -0.916041,-0.916041 -0.601152,-0.372141 -1.68895,-0.658404 v -1.889334 h 15.028793 v 1.889334 q -1.51719,0.429394 -2.08972,0.944667 -0.5439,0.515273 -0.77291,1.374061 -0.22901,0.830161 -0.22901,3.034384 v 9.561174 h 12.93907 v -9.561174 q 0,-2.175596 -0.20038,-3.005758 -0.17176,-0.858788 -0.74428,-1.374061 -0.5439,-0.543899 -2.08972,-0.973293 v -1.889334 h 14.94291 v 1.889334 q -1.25955,0.343515 -1.83208,0.744283 -0.57252,0.372141 -0.83016,0.973293 -0.22901,0.601152 -0.31489,1.345435 -0.0573,0.744283 -0.0573,2.290101 z"
       id="path1332"
       style="fill:#ffffff" />
    <path
       d="m 163.2623,50.014163 q -2.91988,3.091637 -5.7825,4.379819 -2.86263,1.288182 -6.58405,1.288182 -6.66992,0 -10.04782,-3.635536 -3.34927,-3.664162 -3.34927,-10.849356 0,-4.637455 1.71758,-7.986729 1.7462,-3.377899 4.92371,-5.095476 3.17752,-1.746202 7.38558,-1.746202 2.60499,0 4.55158,0.601152 1.97521,0.601151 3.3779,1.68895 1.40268,1.059172 2.31873,2.576364 1.08779,1.803455 1.63169,4.122182 0.57253,2.375981 0.60115,5.75388 h -18.14905 q 0.0286,5.181355 1.83208,7.643214 1.83208,2.433233 5.5535,2.433233 2.17559,0 3.9218,-0.801535 1.7462,-0.830162 3.77866,-2.891254 z m -7.72909,-11.994407 q -0.11451,-4.379819 -1.14505,-6.526789 -1.03055,-2.14697 -3.32065,-2.14697 -2.20422,0 -3.52103,2.232849 -1.28818,2.232849 -1.54582,6.44091 z"
       id="path1334"
       style="fill:#ffffff" />
    <path
       d="m 172.16507,47.495051 q 0.68703,2.604991 2.1756,3.921799 1.48856,1.288182 3.97905,1.288182 2.14697,0 3.23477,-0.973293 1.11642,-0.973293 1.11642,-2.834 0,-1.173677 -0.51527,-2.003839 -0.48665,-0.830162 -1.66033,-1.574445 -1.14505,-0.772909 -3.95042,-2.003839 -1.57445,-0.68703 -2.97713,-1.517192 -1.37406,-0.830162 -2.40461,-1.860708 -1.03055,-1.059171 -1.6317,-2.347354 -0.60115,-1.288182 -0.60115,-2.862626 0,-2.576365 1.48857,-4.465698 1.48856,-1.889334 4.23668,-2.891253 2.77675,-1.00192 6.32641,-1.00192 2.08972,0 4.09356,0.171758 2.00384,0.171757 5.18135,0.744283 v 6.66992 h -3.77867 q -0.6584,-1.832081 -1.45994,-2.834 -0.77291,-1.00192 -1.71757,-1.374061 -0.94467,-0.400768 -2.26148,-0.400768 -1.88933,0 -3.00576,0.858788 -1.11642,0.858788 -1.11642,2.404607 0,1.087798 0.40077,1.860707 0.40077,0.772909 1.43131,1.517192 1.03055,0.715657 3.97905,1.946587 2.69087,1.116424 4.37982,2.347354 1.68895,1.202303 2.57637,2.805374 0.88741,1.574445 0.88741,3.692789 0,2.318727 -0.85879,4.007677 -0.85879,1.660324 -2.4046,2.748122 -1.54582,1.087798 -3.72142,1.631697 -2.14697,0.515273 -4.75196,0.515273 -4.72333,0 -10.50584,-1.345434 v -6.841679 z"
       id="path1336"
       style="fill:#ffffff" />
    <path
       d="m 214.96134,51.788992 q -2.51911,2.14697 -4.5802,3.034384 -2.06109,0.858788 -4.3512,0.858788 -4.26531,0 -6.38365,-2.290101 -2.08972,-2.318728 -2.08972,-6.98481 V 30.405169 h -3.57828 v -1.975213 q 1.7462,-0.286262 2.57636,-0.858788 0.83016,-0.572525 1.28818,-1.517192 0.45802,-0.973293 0.71566,-2.519112 0.28626,-1.545818 0.42939,-3.864546 h 6.84168 v 7.156567 h 8.15849 v 3.578284 h -8.15849 v 12.910447 q 0,3.234769 0.28626,4.780587 0.31489,1.545819 1.03055,2.290102 0.71566,0.715656 1.77483,0.715656 0.80153,0 1.43131,-0.143131 0.62978,-0.143131 1.31681,-0.515273 0.71566,-0.372141 1.48857,-1.059172 z"
       id="path1338"
       style="fill:#ffffff" />
    <path
       d="m 227.64278,15.405004 v 7.013436 h -7.8436 V 15.405004 Z M 216.7648,53.33481 q 1.40269,-0.372141 1.91796,-0.973293 0.5439,-0.601152 0.71566,-1.631697 0.20038,-1.030546 0.20038,-3.750041 V 33.668564 q 0,-1.402688 -0.14313,-2.261476 -0.11451,-0.858788 -0.48665,-1.374061 -0.34351,-0.515272 -0.97329,-0.772909 -0.60115,-0.286262 -1.57445,-0.486646 v -1.946587 l 7.87223,-0.22901 h 3.57828 v 20.353277 q 0,1.603071 0.0286,2.490486 0.0573,0.858788 0.14313,1.345434 0.0859,0.458021 0.22901,0.830162 0.17176,0.372142 0.42939,0.687031 0.25764,0.314889 0.74429,0.572525 0.48664,0.257636 1.28818,0.45802 v 1.889334 H 216.7648 Z"
       id="path1340"
       style="fill:#ffffff" />
    <path
       d="m 252.14686,51.474103 -0.42939,-0.143132 q -2.34736,2.290102 -4.58021,3.320648 -2.20422,1.030545 -4.6947,1.030545 -2.46186,0 -4.29395,-0.887414 -1.80345,-0.916041 -2.74812,-2.519112 -0.91604,-1.603071 -0.91604,-3.692788 0,-4.208062 4.12219,-6.612668 4.1508,-2.433233 12.56693,-3.063011 v -2.719496 q 0,-2.662243 -0.60115,-4.093556 -0.60116,-1.45994 -1.54582,-2.032465 -0.94467,-0.601152 -2.26148,-0.601152 -1.31681,0 -2.2901,0.45802 -0.94467,0.458021 -1.71758,1.746203 -0.77291,1.259556 -1.14505,3.521031 h -5.41036 v -5.209981 q 2.63362,-1.173677 4.37982,-1.803455 1.7462,-0.629778 3.43515,-1.030546 1.71758,-0.429394 3.06301,-0.601151 1.34544,-0.171758 2.69087,-0.171758 3.46378,0 5.52487,0.916041 2.08972,0.91604 3.12026,2.977132 1.03055,2.061091 1.03055,5.696627 V 47.12291 q 0,1.889334 0.0859,2.919879 0.0859,1.030546 0.25763,1.545819 0.20039,0.486646 0.48665,0.801535 0.28626,0.286263 0.68703,0.486647 0.42939,0.171758 1.57445,0.45802 v 1.889334 h -10.64898 z m -0.94467,-9.761558 q -4.43707,0.114505 -6.58404,1.660324 -2.11834,1.545818 -2.11834,4.52295 0,1.774829 0.97329,2.719496 0.97329,0.91604 2.69087,0.91604 1.31681,0 2.49049,-0.68703 1.17367,-0.715657 1.8607,-1.889334 0.68703,-1.173677 0.68703,-2.490485 z"
       id="path1342"
       style="fill:#ffffff" />
  </g>
</svg>
